<svg xmlns="http://www.w3.org/2000/svg" xmlns:xlink="http://www.w3.org/1999/xlink" viewBox="0 0 512 512" width="512" height="512" style="width: 100%; height: 100%; transform: translate3d(0,0,0);" preserveAspectRatio="xMidYMid meet"><defs><clipPath id="__lottie_element_2"><rect width="512" height="512" x="0" y="0"></rect></clipPath></defs><g clip-path="url(#__lottie_element_2)"><g style="display: block;" transform="matrix(1.0150914192199707,0.006147765088826418,-0.006145100574940443,1.0146514177322388,246.864990234375,231.86500549316406)" opacity="1"><g opacity="1" transform="matrix(1,0,0,1,0,0)"><path stroke-linecap="butt" stroke-linejoin="miter" fill-opacity="0" stroke-miterlimit="10" stroke="rgb(112,112,112)" stroke-opacity="1" stroke-width="10" d=" M-121.98400115966797,171.12600708007812 C-121.98400115966797,171.12600708007812 -168.73399353027344,149.427001953125 -192.95899963378906,97.58899688720703"></path></g></g><g style="display: block;" transform="matrix(1.0150914192199707,0.006147765088826418,-0.006145100574940443,1.0146514177322388,246.864990234375,231.86500549316406)" opacity="1"><g opacity="1" transform="matrix(1,0,0,1,0,0)"><path stroke-linecap="butt" stroke-linejoin="miter" fill-opacity="0" stroke-miterlimit="10" stroke="rgb(112,112,112)" stroke-opacity="1" stroke-width="10" d=" M-108.35299682617188,145.09300231933594 C-108.35299682617188,145.09300231933594 -146.1280059814453,127.55999755859375 -165.70199584960938,85.67400360107422"></path></g></g><g style="display: none;"><g><path stroke-linecap="butt" stroke-linejoin="miter" fill-opacity="0" stroke-miterlimit="10"></path></g></g><g style="display: none;"><g><path stroke-linecap="butt" stroke-linejoin="miter" fill-opacity="0" stroke-miterlimit="10"></path></g></g><g style="display: none;"><g><path stroke-linecap="butt" stroke-linejoin="miter" fill-opacity="0" stroke-miterlimit="10"></path></g></g><g style="display: none;"><g><path stroke-linecap="butt" stroke-linejoin="miter" fill-opacity="0" stroke-miterlimit="10"></path></g></g><g style="display: none;"><g><path stroke-linecap="butt" stroke-linejoin="miter" fill-opacity="0" stroke-miterlimit="10"></path></g></g><g style="display: none;"><g><path stroke-linecap="butt" stroke-linejoin="miter" fill-opacity="0" stroke-miterlimit="10"></path></g></g><g style="display: none;"><g><path stroke-linecap="butt" stroke-linejoin="miter" fill-opacity="0" stroke-miterlimit="10"></path></g></g><g style="display: none;"><g><path stroke-linecap="butt" stroke-linejoin="miter" fill-opacity="0" stroke-miterlimit="10"></path></g></g><g style="display: none;"><g><path stroke-linecap="butt" stroke-linejoin="miter" fill-opacity="0" stroke-miterlimit="10"></path></g></g><g style="display: block;" transform="matrix(-1.001635193824768,-0.1648498773574829,0.16477841138839722,-1.0012009143829346,151.86502075195312,200.86500549316406)" opacity="1"><g opacity="1" transform="matrix(1,0,0,1,0,0)"><path stroke-linecap="butt" stroke-linejoin="miter" fill-opacity="0" stroke-miterlimit="10" stroke="rgb(112,112,112)" stroke-opacity="1" stroke-width="10" d=" M-121.98400115966797,171.12600708007812 C-121.98400115966797,171.12600708007812 -168.73399353027344,149.427001953125 -192.95899963378906,97.58899688720703"></path></g></g><g style="display: block;" transform="matrix(-1.001635193824768,-0.1648498773574829,0.16477841138839722,-1.0012009143829346,151.86502075195312,200.86500549316406)" opacity="1"><g opacity="1" transform="matrix(1,0,0,1,0,0)"><path stroke-linecap="butt" stroke-linejoin="miter" fill-opacity="0" stroke-miterlimit="10" stroke="rgb(112,112,112)" stroke-opacity="1" stroke-width="10" d=" M-108.35299682617188,145.09300231933594 C-108.35299682617188,145.09300231933594 -146.1280059814453,127.55999755859375 -165.70199584960938,85.67400360107422"></path></g></g><g style="display: none;"><g><path stroke-linecap="butt" stroke-linejoin="miter" fill-opacity="0" stroke-miterlimit="10"></path></g></g><g style="display: none;"><g><path stroke-linecap="butt" stroke-linejoin="miter" fill-opacity="0" stroke-miterlimit="10"></path></g></g><g style="display: none;"><g><path stroke-linecap="butt" stroke-linejoin="miter" fill-opacity="0" stroke-miterlimit="10"></path></g></g><g style="display: none;"><g><path stroke-linecap="butt" stroke-linejoin="miter" fill-opacity="0" stroke-miterlimit="10"></path></g></g><g style="display: none;"><g><path stroke-linecap="butt" stroke-linejoin="miter" fill-opacity="0" stroke-miterlimit="10"></path></g></g><g style="display: none;"><g><path stroke-linecap="butt" stroke-linejoin="miter" fill-opacity="0" stroke-miterlimit="10"></path></g></g><g style="display: none;"><g><path stroke-linecap="butt" stroke-linejoin="miter" fill-opacity="0" stroke-miterlimit="10"></path></g></g><g style="display: none;"><g><path stroke-linecap="butt" stroke-linejoin="miter" fill-opacity="0" stroke-miterlimit="10"></path></g></g><g style="display: none;"><g><path stroke-linecap="butt" stroke-linejoin="miter" fill-opacity="0" stroke-miterlimit="10"></path></g></g><g style="display: block;" transform="matrix(1.065750002861023,0.01575002446770668,0.01575002446770668,1.065750002861023,248.68875122070312,131.52845764160156)" opacity="1"><g opacity="1" transform="matrix(1,0,0,1,0,0)"><path fill="rgb(252,206,44)" fill-opacity="1" d=" M69.03199768066406,62.915000915527344 C58.41299819946289,50.96900177001953 29.875,11.812000274658203 19.256000518798828,-1.4620000123977661 C-12.82800006866455,-41.56700134277344 -37.15599822998047,-82.62200164794922 -60.70500183105469,-68.81300354003906 C-83.52200317382812,-55.43299865722656 -54.784000396728516,-25.316999435424805 -30.503000259399414,7.493000030517578 C-5.888000011444092,40.75600051879883 16.493999481201172,62.9109992980957 9.96399974822998,71.54299926757812 C9.96399974822998,71.54299926757812 69.03199768066406,62.915000915527344 69.03199768066406,62.915000915527344z"></path></g></g><g style="display: block;" transform="matrix(1.065750002861023,0.01575002446770668,0.01575002446770668,1.065750002861023,183.86854553222656,166.60525512695312)" opacity="1"><g opacity="1" transform="matrix(1,0,0,1,0,0)"><path fill="rgb(252,206,44)" fill-opacity="1" d=" M37.435001373291016,82.43499755859375 C40.097999572753906,78.74199676513672 16.14299964904785,53.7140007019043 -18.52400016784668,14.793000221252441 C-56.82400131225586,-28.207000732421875 -83.14199829101562,-62.80699920654297 -65.87999725341797,-77.0469970703125 C-45.358001708984375,-93.97599792480469 -26.989999771118164,-69.0479965209961 7.23799991607666,-29.711000442504883 C35.10499954223633,2.315999984741211 65.91699981689453,43.7130012512207 71.28399658203125,37.724998474121094"></path></g></g><g style="display: block;" transform="matrix(1.065750002861023,0.01575002446770668,0.01575002446770668,1.065750002861023,152.5716552734375,230.45094299316406)" opacity="1"><g opacity="1" transform="matrix(1,0,0,1,0,0)"><path fill="rgb(252,206,44)" fill-opacity="1" d=" M67.69400024414062,22.08099937438965 C61.35599899291992,29.731000900268555 41.84700012207031,9.715999603271484 4.840000152587891,-30.868999481201172 C-23.525999069213867,-61.97800064086914 -48.367000579833984,-85.91000366210938 -62.665000915527344,-72.49199676513672 C-79.62799835205078,-56.57400131225586 -51.138999938964844,-24.95199966430664 -15.125,11.583999633789062 C20.888999938964844,48.119998931884766 48.55099868774414,69.51899719238281 43.332000732421875,76.30400085449219"></path></g></g><g style="display: block;" transform="matrix(1.065750002861023,0.01575002446770668,0.01575002446770668,1.065750002861023,119.57347106933594,169.7296142578125)" opacity="1"><g opacity="1" transform="matrix(1,0,0,1,0,0)"><path fill="rgb(255,215,93)" fill-opacity="1" d=" M-21.15999984741211,7.732999801635742 C-21.15999984741211,7.732999801635742 -23.08300018310547,-1.8980000019073486 -9.180999755859375,0 C6.164000034332275,2.0950000286102295 13.055000305175781,11.190999984741211 30.12700080871582,22.089000701904297 C30.12700080871582,22.089000701904297 -2.815000057220459,-19.841999053955078 -15.963000297546387,-21.792999267578125 C-37.689998626708984,-25.016000747680664 -30.23200035095215,-1.0889999866485596 -21.15999984741211,7.732999801635742z"></path></g></g><g style="display: block;" transform="matrix(1.065750002861023,0.01575002446770668,0.01575002446770668,1.065750002861023,143.5205078125,312.74560546875)" opacity="1"><g opacity="1" transform="matrix(1,0,0,1,0,0)"><path fill="rgb(252,206,44)" fill-opacity="1" d=" M52.96799850463867,-1.0549999475479126 C49.70100021362305,3.1389999389648438 29.648000717163086,-16.604000091552734 8.307999610900879,-34.375 C-19.631999969482422,-57.643001556396484 -34.875999450683594,-68.26300048828125 -46.91400146484375,-57.17900085449219 C-64.77300262451172,-40.736000061035156 -40.757999420166016,-17.586000442504883 -5.7829999923706055,12.515000343322754 C13.829999923706055,29.395000457763672 35.4370002746582,50.04999923706055 47.61600112915039,61.5880012512207 C47.61600112915039,61.5880012512207 52.96799850463867,-1.0549999475479126 52.96799850463867,-1.0549999475479126z"></path></g></g><g style="display: block;" transform="matrix(1.065750002861023,0.01575002446770668,0.01575002446770668,1.065750002861023,117.95720672607422,263.2517395019531)" opacity="1"><g opacity="1" transform="matrix(1,0,0,1,0,0)"><path fill="rgb(255,215,93)" fill-opacity="1" d=" M-10.812000274658203,14.704999923706055 C-10.812000274658203,14.704999923706055 -18.441999435424805,1.2200000286102295 -9.85200023651123,-1.9550000429153442 C-1.2619999647140503,-5.130000114440918 20.81800079345703,7.125 30.613000869750977,10.720999717712402 C30.613000869750977,10.720999717712402 -2.3010001182556152,-26.163999557495117 -23.608999252319336,-11.083000183105469 C-44.91699981689453,3.997999906539917 -10.812000274658203,14.704999923706055 -10.812000274658203,14.704999923706055z"></path></g></g><g style="display: block;" transform="matrix(1.065750002861023,0.01575002446770668,0.01575002446770668,1.065750002861023,326.30963134765625,295.9223937988281)" opacity="1"><g opacity="1" transform="matrix(1,0,0,1,0,0)"><path fill="rgb(252,206,44)" fill-opacity="1" d=" M-1.5360000133514404,-90.29299926757812 C29.76799964904785,-53.29199981689453 42.94900131225586,-51.62300109863281 53.167999267578125,-66.38500213623047 C63.38800048828125,-81.14700317382812 59.07500076293945,-102.625 65.31999969482422,-119.48600006103516 C71.56500244140625,-136.3470001220703 102.76599884033203,-158.26400756835938 120.93399810791016,-146.34100341796875 C139.1020050048828,-134.41799926757812 129.4499969482422,-121.36000061035156 120.93399810791016,-106.03099822998047 C112.41799926757812,-90.7020034790039 108.44300079345703,-72.53299713134766 107.875,-50.39099884033203 C107.30699920654297,-28.249000549316406 107.21299743652344,-21.399999618530273 112.41899871826172,12.814000129699707 C117.625,47.02799987792969 106.00900268554688,78.91200256347656 87.61799621582031,101.322998046875 C69.63800048828125,123.23300170898438 35.53300094604492,149.85000610351562 -3.7839999198913574,149.7449951171875 C-50.582000732421875,149.6199951171875 -107.46399688720703,95.2959976196289 -124.16699981689453,79.91200256347656 C-124.16699981689453,79.91200256347656 -142.4239959716797,36.196998596191406 -120.30899810791016,14.741999626159668 C-120.30899810791016,14.741999626159668 -125.9209976196289,-21.89699935913086 -97.2040023803711,-39.39099884033203 C-97.2040023803711,-39.39099884033203 -93.6520004272461,-75.04000091552734 -60.604000091552734,-83.29199981689453 C-60.604000091552734,-83.29199981689453 -30.56800079345703,-124.60800170898438 -1.5360000133514404,-90.29299926757812z"></path></g></g><g style="display: block;" transform="matrix(1.065750002861023,0.01575002446770668,0.01575002446770668,1.065750002861023,189.84019470214844,147.31495666503906)" opacity="1"><g opacity="1" transform="matrix(1,0,0,1,0,0)"><path fill="rgb(255,215,93)" fill-opacity="1" d=" M-61.30799865722656,-26.97599983215332 C-67.89299774169922,-59.3120002746582 -40.07500076293945,-44.39099884033203 -16.680999755859375,-28.982999801635742 C-26.801000595092773,-43.81700134277344 -37.444000244140625,-52.91999816894531 -47.071998596191406,-59.46699905395508 C-64.04299926757812,-71.00700378417969 -80.54499816894531,-57.59400177001953 -61.30799865722656,-26.97599983215332z"></path></g></g><g style="display: block;" transform="matrix(1.065750002861023,0.01575002446770668,0.01575002446770668,1.065750002861023,377.124267578125,241.35169982910156)" opacity="0.15"><g opacity="1" transform="matrix(1,0,0,1,0,0)"><path fill="rgb(240,146,1)" fill-opacity="1" d=" M52.01599884033203,-93.46700286865234 C10.62600040435791,-77.30699920654297 30.32699966430664,-26.694000244140625 9.479999542236328,-8.12600040435791 C-2.9769999980926514,2.9700000286102295 -12.756999969482422,3.4019999504089355 -29.798999786376953,32.88800048828125 C-46.04999923706055,61.005001068115234 -33.85900115966797,92.6780014038086 -38.41899871826172,93.43800354003906 C-42.979000091552734,94.197998046875 -50.457000732421875,80.12100219726562 -51.8390007019043,59.99800109863281 C-53.643001556396484,33.73500061035156 -41.19900131225586,9.57800006866455 -35.23899841308594,-1.3220000267028809 C-29.27899932861328,-12.211999893188477 -35.23899841308594,-21.082000732421875 -35.23899841308594,-21.082000732421875 C-35.23899841308594,-21.082000732421875 -35.23899841308594,-21.082000732421875 -35.23899841308594,-21.082000732421875 C-17.70599937438965,0 -3.559000015258789,-2.51200008392334 4.7210001945495605,-14.461999893188477 C14.940999984741211,-29.222000122070312 10.630999565124512,-50.70199966430664 16.871000289916992,-67.56199645996094 C20.951000213623047,-78.56199645996094 35.29499816894531,-92.16999816894531 52.01599884033203,-93.46700286865234z"></path></g></g><g style="display: block;" transform="matrix(1.065750002861023,0.01575002446770668,0.01575002446770668,1.065750002861023,261.6209716796875,140.61451721191406)" opacity="1"><g opacity="1" transform="matrix(1,0,0,1,0,0)"><path fill="rgb(255,215,93)" fill-opacity="1" d=" M-49.27199935913086,-57.152000427246094 C-66.48999786376953,-67.77200317382812 -70.51699829101562,-55.58700180053711 -70.51699829101562,-55.58700180053711 C-74.83699798583984,-60.64699935913086 -76.51100158691406,-74.6729965209961 -72.71299743652344,-77.15599822998047 C-53.68199920654297,-89.59600067138672 -28.08300018310547,-57.85499954223633 -10.836000442504883,-33.130001068115234 C-20.290000915527344,-38.53900146484375 -42.683998107910156,-53.0890007019043 -49.27199935913086,-57.152000427246094z"></path></g><g opacity="0.15" transform="matrix(1,0,0,1,0,0)"><path fill="rgb(240,146,1)" fill-opacity="1" d=" M98.41300201416016,87.62799835205078 C85.65399932861328,100.10900115966797 50.047000885009766,65.98600006103516 31.10099983215332,40.42900085449219 C12.972999572753906,15.97599983215332 -31.22800064086914,-40.79999923706055 -44.54499816894531,-56.38100051879883 C-56.310001373291016,-70.1449966430664 -60.02899932861328,-75.552001953125 -72.71299743652344,-77.15599822998047 C-49.62300109863281,-91.71600341796875 -24.843000411987305,-49.91600036621094 7.247000217437744,-9.805999755859375 C17.867000579833984,3.4639999866485596 68.78800201416016,87.5199966430664 98.41300201416016,87.62799835205078z"></path></g><g opacity="0.3" transform="matrix(1,0,0,1,0,0)"><path fill="rgb(240,146,1)" fill-opacity="1" d=" M98.41300201416016,87.62799835205078 C80.46299743652344,94.94300079345703 51.99599838256836,63.66400146484375 33.04999923706055,38.106998443603516 C14.92199993133545,13.654000282287598 -30.090999603271484,-44.45500183105469 -43.40800094604492,-60.0359992980957 C-55.17300033569336,-73.80000305175781 -60.02899932861328,-75.552001953125 -72.71299743652344,-77.15599822998047 C-49.62300109863281,-91.71600341796875 -24.843000411987305,-49.91600036621094 7.247000217437744,-9.805999755859375 C17.867000579833984,3.4639999866485596 68.78800201416016,87.5199966430664 98.41300201416016,87.62799835205078z"></path></g><g opacity="0.5" transform="matrix(1,0,0,1,0,0)"><path fill="rgb(240,146,1)" fill-opacity="1" d=" M98.41300201416016,87.62799835205078 C77.86799621582031,92.36000061035156 54.10100173950195,62.08700180053711 35.154998779296875,36.529998779296875 C17.027000427246094,12.07699966430664 -28.302000045776367,-45.362998962402344 -41.61899948120117,-60.944000244140625 C-53.38399887084961,-74.70800018310547 -60.89400100708008,-76.41300201416016 -72.71299743652344,-77.15599822998047 C-49.62300109863281,-91.71600341796875 -24.843000411987305,-49.91600036621094 7.247000217437744,-9.805999755859375 C17.867000579833984,3.4639999866485596 68.78800201416016,87.5199966430664 98.41300201416016,87.62799835205078z"></path></g></g><g style="display: block;" transform="matrix(1.065750002861023,0.01575002446770668,0.01575002446770668,1.065750002861023,144.2364044189453,232.7049560546875)" opacity="1"><g opacity="0.5" transform="matrix(1,0,0,1,0,0)"><path fill="rgb(240,146,1)" fill-opacity="1" d=" M-42.64400100708008,-75.9540023803711 C-42.64400100708008,-75.9540023803711 -71.35399627685547,-75.61000061035156 -38.874000549316406,-36.54600143432617 C-31.783000946044922,-28.017000198364258 13.670000076293945,16.3700008392334 41.650001525878906,44.349998474121094 C57.9119987487793,60.61199951171875 60.32899856567383,70.76799774169922 58.327999114990234,74.51499938964844 C56.32699966430664,78.26200103759766 48.957000732421875,84.93900299072266 38.082000732421875,76.5989990234375 C16.60300064086914,60.125999450683594 -28.56100082397461,12.897000312805176 -41.70399856567383,17.548999786376953 C-24.538999557495117,2.632999897003174 43.849998474121094,81.26200103759766 51.01900100708008,74.1240005493164 C56.94300079345703,68.22599792480469 43.43299865722656,58.518001556396484 32.040000915527344,47.582000732421875 C9.1899995803833,25.648000717163086 -27.354999542236328,-10.562000274658203 -40.19599914550781,-24.861000061035156 C-53.0369987487793,-39.15999984741211 -66.4219970703125,-59.20399856567383 -58.053001403808594,-70.79399871826172 C-49.683998107910156,-82.38400268554688 -42.64400100708008,-75.9540023803711 -42.64400100708008,-75.9540023803711z"></path></g><g opacity="0.3" transform="matrix(1,0,0,1,0,0)"><path fill="rgb(240,146,1)" fill-opacity="1" d=" M-42.64400100708008,-75.9540023803711 C-42.64400100708008,-75.9540023803711 -68.03900146484375,-77.7699966430664 -36.262001037597656,-38.69599914550781 C-29.263999938964844,-30.090999603271484 15.454999923706055,13.664999961853027 43.805999755859375,41.26900100708008 C63.856998443603516,60.79199981689453 61.8489990234375,69.73600006103516 58.7869987487793,75.21199798583984 C56.7140007019043,78.91999816894531 47.518001556396484,87.07099914550781 36.643001556396484,78.73100280761719 C15.163999557495117,62.257999420166016 -31.051000595092773,14.692999839782715 -41.82500076293945,17.785999298095703 C-22.503000259399414,-0.210999995470047 43.849998474121094,81.26200103759766 51.01900100708008,74.1240005493164 C56.94300079345703,68.22599792480469 43.43299865722656,58.518001556396484 32.040000915527344,47.582000732421875 C9.1899995803833,25.648000717163086 -27.354999542236328,-10.562000274658203 -40.19599914550781,-24.861000061035156 C-53.0369987487793,-39.15999984741211 -66.4219970703125,-59.20399856567383 -58.053001403808594,-70.79399871826172 C-49.683998107910156,-82.38400268554688 -42.64400100708008,-75.9540023803711 -42.64400100708008,-75.9540023803711z"></path></g><g opacity="0.15" transform="matrix(1,0,0,1,0,0)"><path fill="rgb(240,146,1)" fill-opacity="1" d=" M-42.64400100708008,-75.9540023803711 C-42.64400100708008,-75.9540023803711 -63.80799865722656,-78.302001953125 -33.63199996948242,-42.01900100708008 C-26.540000915527344,-33.49100112915039 17.871999740600586,11.97700023651123 46.89099884033203,38.87799835205078 C70.427001953125,60.69499969482422 62.31800079345703,69.72899627685547 59.25600051879883,75.20500183105469 C57.18299865722656,78.91300201416016 47.025001525878906,88.72100067138672 36.150001525878906,80.38099670410156 C14.670999526977539,63.90800094604492 -36.30099868774414,12.776000022888184 -44.18199920654297,18.52400016784668 C-24.33099937438965,-3.5859999656677246 43.849998474121094,81.26200103759766 51.01900100708008,74.1240005493164 C56.94300079345703,68.22599792480469 43.43299865722656,58.518001556396484 32.040000915527344,47.582000732421875 C9.1899995803833,25.648000717163086 -27.354999542236328,-10.562000274658203 -40.19599914550781,-24.861000061035156 C-53.0369987487793,-39.15999984741211 -66.4219970703125,-59.20399856567383 -58.053001403808594,-70.79399871826172 C-49.683998107910156,-82.38400268554688 -42.64400100708008,-75.9540023803711 -42.64400100708008,-75.9540023803711z"></path></g></g><g style="display: block;" transform="matrix(1.065750002861023,0.01575002446770668,0.01575002446770668,1.065750002861023,170.55052185058594,170.12921142578125)" opacity="1"><g opacity="0.5" transform="matrix(0.9969935417175293,0.07748468965291977,-0.07748468965291977,0.9969935417175293,2.3320000171661377,0.9039999842643738)"><path fill="rgb(240,146,1)" fill-opacity="1" d=" M-47.30699920654297,-79.5459976196289 C-47.30699920654297,-79.5459976196289 -77.33000183105469,-79.14299774169922 -43.433998107910156,-39.23099899291992 C-36.034000396728516,-30.517000198364258 8.612000465393066,14.392000198364258 42.87699890136719,43.6609992980957 C62.834999084472656,60.709999084472656 62.10200119018555,72.09400177001953 60.00299835205078,75.93199920654297 C57.90399932861328,79.7699966430664 47.61399841308594,84.96800231933594 36.25699996948242,76.4540023803711 C13.824999809265137,59.637001037597656 -62.76900100708008,-15.913000106811523 -76.52100372314453,-11.130000114440918 C-58.54499816894531,-26.422000885009766 41.95899963378906,81.71600341796875 49.46799850463867,74.4000015258789 C55.67300033569336,68.3550033569336 42.46699905395508,57.88999938964844 30.572999954223633,46.72100067138672 C6.7170000076293945,24.319000244140625 -31.43400001525879,-12.664999961853027 -44.83700180053711,-27.273000717163086 C-58.2400016784668,-41.88100051879883 -72.20099639892578,-62.36600112915039 -63.42900085449219,-74.23899841308594 C-54.65700149536133,-86.11199951171875 -47.30699920654297,-79.5459976196289 -47.30699920654297,-79.5459976196289z"></path></g><g opacity="0.3" transform="matrix(0.9969935417175293,0.07748468965291977,-0.07748468965291977,0.9969935417175293,2.3320000171661377,0.9039999842643738)"><path fill="rgb(240,146,1)" fill-opacity="1" d=" M-47.30699920654297,-79.5459976196289 C-47.30699920654297,-79.5459976196289 -73.85900115966797,-81.36000061035156 -40.69900131225586,-41.43600082397461 C-33.395999908447266,-32.64400100708008 14.871999740600586,13.04699993133545 45.13800048828125,40.50400161743164 C71.9469985961914,64.8239974975586 64.74400329589844,70.93900299072266 61.53300094604492,76.5469970703125 C59.35900115966797,80.34400177001953 48.91299819946289,89.0999984741211 34.74800109863281,78.63899993896484 C12.194999694824219,61.98400115966797 -65.3759994506836,-14.071000099182129 -76.64800262451172,-10.887999534606934 C-56.4119987487793,-29.336999893188477 41.95899963378906,81.71600341796875 49.46799850463867,74.4000015258789 C55.67300033569336,68.3550033569336 42.46699905395508,57.88999938964844 30.572999954223633,46.72100067138672 C6.7170000076293945,24.319000244140625 -31.43400001525879,-12.664999961853027 -44.83700180053711,-27.273000717163086 C-58.2400016784668,-41.88100051879883 -72.20099639892578,-62.36600112915039 -63.42900085449219,-74.23899841308594 C-54.65700149536133,-86.11199951171875 -47.30699920654297,-79.5459976196289 -47.30699920654297,-79.5459976196289z"></path></g><g opacity="0.15" transform="matrix(0.9969935417175293,0.07748468965291977,-0.07748468965291977,0.9969935417175293,2.3320000171661377,0.9039999842643738)"><path fill="rgb(240,146,1)" fill-opacity="1" d=" M-47.30699920654297,-79.5459976196289 C-47.30699920654297,-79.5459976196289 -69.43399810791016,-81.91100311279297 -37.94300079345703,-44.84000015258789 C-30.541000366210938,-36.12699890136719 18.06800079345703,10.630999565124512 48.36800003051758,38.051998138427734 C78.81099700927734,65.60199737548828 65.62899780273438,71.60199737548828 62.417999267578125,77.20999908447266 C60.24399948120117,81.00700378417969 52.12099838256836,93.39600372314453 34.229000091552734,80.3270034790039 C11.58899974822998,63.79100036621094 -70.86299896240234,-16.023000717163086 -79.11399841308594,-10.128000259399414 C-58.316001892089844,-32.7859992980957 41.95899963378906,81.71600341796875 49.46799850463867,74.4000015258789 C55.67300033569336,68.3550033569336 42.46699905395508,57.88999938964844 30.572999954223633,46.72100067138672 C6.7170000076293945,24.319000244140625 -31.43400001525879,-12.664999961853027 -44.83700180053711,-27.273000717163086 C-58.2400016784668,-41.88100051879883 -72.20099639892578,-62.36600112915039 -63.42900085449219,-74.23899841308594 C-54.65700149536133,-86.11199951171875 -47.30699920654297,-79.5459976196289 -47.30699920654297,-79.5459976196289z"></path></g></g><g style="display: block;" transform="matrix(1.065750002861023,0.01575002446770668,0.01575002446770668,1.065750002861023,221.7449951171875,133.97946166992188)" opacity="1"><g opacity="0.15" transform="matrix(1,0,0,1,0,0)"><path fill="rgb(240,146,1)" fill-opacity="1" d=" M-22.027000427246094,-71.58799743652344 C-22.027000427246094,-71.58799743652344 -36.96500015258789,-72.55699920654297 -24.202999114990234,-50.20100021362305 C-10.170999526977539,-25.6200008392334 11.503000259399414,-0.23199999332427979 29.312999725341797,24.246999740600586 C46.20600128173828,47.46699905395508 53.81399917602539,65.61100006103516 42.270999908447266,75.11499786376953 C36.07899856567383,80.21299743652344 29.659000396728516,84.29199981689453 12.940999984741211,67.54499816894531 C-6.24399995803833,48.32099914550781 -83.57599639892578,-52.959999084472656 -96.11499786376953,-45.108001708984375 C-67.11699676513672,-73.02400207519531 20.360000610351562,82.28399658203125 36.801998138427734,68.12799835205078 C39.926998138427734,65.43699645996094 35.52899932861328,57.152000427246094 27.944000244140625,46.944000244140625 C18.108999252319336,33.70800018310547 -26.631999969482422,-20.541000366210938 -35.35900115966797,-34.249000549316406 C-44.08599853515625,-47.957000732421875 -51.92300033569336,-62.784000396728516 -35.38399887084961,-71.48699951171875 C-28.709999084472656,-74.9990005493164 -22.027000427246094,-71.58799743652344 -22.027000427246094,-71.58799743652344z"></path></g><g opacity="0.3" transform="matrix(1,0,0,1,0,0)"><path fill="rgb(240,146,1)" fill-opacity="1" d=" M-22.027000427246094,-71.58799743652344 C-22.027000427246094,-71.58799743652344 -40.95100021362305,-71.4800033569336 -28.18899917602539,-49.124000549316406 C-14.156999588012695,-24.542999267578125 8.35200023651123,2.177999973297119 26.16200065612793,26.656999588012695 C43.05500030517578,49.87699890136719 52.76599884033203,64.08200073242188 41.222999572753906,73.58599853515625 C35.03099822998047,78.68399810791016 30.93400001525879,82.6709976196289 14.215999603271484,65.92400360107422 C-4.968999862670898,46.70000076293945 -81.38300323486328,-55.367000579833984 -96.11499786376953,-45.108001708984375 C-67.11699676513672,-73.02400207519531 20.360000610351562,82.28399658203125 36.801998138427734,68.12799835205078 C39.926998138427734,65.43699645996094 35.52899932861328,57.152000427246094 27.944000244140625,46.944000244140625 C18.108999252319336,33.70800018310547 -26.631999969482422,-20.541000366210938 -35.35900115966797,-34.249000549316406 C-44.08599853515625,-47.957000732421875 -51.92300033569336,-62.784000396728516 -35.38399887084961,-71.48699951171875 C-28.709999084472656,-74.9990005493164 -22.027000427246094,-71.58799743652344 -22.027000427246094,-71.58799743652344z"></path></g><g opacity="0.5" transform="matrix(1,0,0,1,0,0)"><path fill="rgb(240,146,1)" fill-opacity="1" d=" M-22.027000427246094,-71.58799743652344 C-22.027000427246094,-71.58799743652344 -45.24100112915039,-69.96399688720703 -32.479000091552734,-47.608001708984375 C-18.44700050354004,-23.027000427246094 4.954999923706055,4.495999813079834 23.172000885009766,28.66699981689453 C39.4109992980957,50.270999908447266 50.45100021362305,63.29499816894531 40.005001068115234,72.42900085449219 C33.965999603271484,77.70800018310547 31.301000595092773,79.81999969482422 15.633999824523926,64.18000030517578 C-3.500999927520752,44.9119987487793 -80.10099792480469,-59.40599822998047 -96.11499786376953,-45.108001708984375 C-67.11699676513672,-73.02400207519531 20.360000610351562,82.28399658203125 36.801998138427734,68.12799835205078 C39.926998138427734,65.43699645996094 35.52899932861328,57.152000427246094 27.944000244140625,46.944000244140625 C18.108999252319336,33.70800018310547 -26.631999969482422,-20.541000366210938 -35.35900115966797,-34.249000549316406 C-44.08599853515625,-47.957000732421875 -51.92300033569336,-62.784000396728516 -35.38399887084961,-71.48699951171875 C-28.709999084472656,-74.9990005493164 -22.027000427246094,-71.58799743652344 -22.027000427246094,-71.58799743652344z"></path></g></g><g style="display: block;" transform="matrix(1.065750002861023,0.01575002446770668,0.01575002446770668,1.065750002861023,248.6394805908203,131.51068115234375)" opacity="1"><g opacity="1" transform="matrix(1,0,0,1,0,0)"><path stroke-linecap="round" stroke-linejoin="round" fill-opacity="0" stroke="rgb(225,124,0)" stroke-opacity="1" stroke-width="8" d=" M69.0780029296875,62.93199920654297 C58.45899963378906,50.986000061035156 29.92099952697754,11.82800006866455 19.302000045776367,-1.4459999799728394 C-12.781999588012695,-41.55099868774414 -37.17399978637695,-82.71299743652344 -60.659000396728516,-68.7969970703125 C-83.69200134277344,-55.14899826049805 -54.737998962402344,-25.301000595092773 -30.457000732421875,7.508999824523926 C-5.8420000076293945,40.77199935913086 19.514999389648438,64.87899780273438 10.010000228881836,71.55999755859375"></path></g></g><g style="display: block;" transform="matrix(1.065750002861023,0.01575002446770668,0.01575002446770668,1.065750002861023,183.8406982421875,166.59524536132812)" opacity="1"><g opacity="1" transform="matrix(1,0,0,1,0,0)"><path stroke-linecap="round" stroke-linejoin="round" fill-opacity="0" stroke="rgb(225,124,0)" stroke-opacity="1" stroke-width="8" d=" M37.46200180053711,82.44400024414062 C44.90700149536133,73.92400360107422 20.594999313354492,57.9640007019043 -16.49799919128418,14.802000045776367 C-49.06999969482422,-23.099000930786133 -85.27999877929688,-60.99599838256836 -65.85299682617188,-77.03800201416016 C-45.29600143432617,-94.01300048828125 -26.964000701904297,-69.03900146484375 7.263999938964844,-29.70199966430664 C35.13100051879883,2.325000047683716 63.970001220703125,44.595001220703125 71.31099700927734,37.73400115966797"></path></g></g><g style="display: block;" transform="matrix(1.065750002861023,0.01575002446770668,0.01575002446770668,1.065750002861023,152.37606811523438,229.97817993164062)" opacity="1"><g opacity="1" transform="matrix(1,0,0,1,0,0)"><path stroke-linecap="round" stroke-linejoin="round" fill-opacity="0" stroke="rgb(225,124,0)" stroke-opacity="1" stroke-width="8" d=" M67.87100219726562,22.52199935913086 C61.65299987792969,30.336999893188477 31.711000442504883,-3.632999897003174 6.01800012588501,-29.427000045776367 C-26.417999267578125,-61.9900016784668 -47.1619987487793,-87.66799926757812 -62.487998962402344,-72.0510025024414 C-80.46299743652344,-53.73500061035156 -50.74599838256836,-25.69300079345703 -12.946999549865723,12.024999618530273 C25.36400032043457,50.25400161743164 50.41600036621094,69.00399780273438 43.5099983215332,76.74600219726562"></path></g></g><g style="display: block;" transform="matrix(1.065750002861023,0.01575002446770668,0.01575002446770668,1.065750002861023,276.4859619140625,295.1946105957031)" opacity="1"><g opacity="0.5" transform="matrix(1,0,0,1,0,0)"><path fill="rgb(240,146,1)" fill-opacity="1" d=" M154.6280059814453,-50.400001525878906 C154.05799865722656,-28.260000228881836 153.95799255371094,-21.40999984741211 159.16799926757812,12.8100004196167 C164.3780059814453,47.02000045776367 152.75799560546875,78.9000015258789 134.3679962158203,101.31999969482422 C116.38800048828125,123.2300033569336 82.28800201416016,149.83999633789062 42.96799850463867,149.74000549316406 C-3.8320000171661377,149.61000061035156 -60.71200180053711,95.29000091552734 -77.41200256347656,79.9000015258789 C-77.41200256347656,79.9000015258789 -77.41200256347656,79.9000015258789 -77.4219970703125,79.88999938964844 C-89.60199737548828,68.36000061035156 -111.21199798583984,47.709999084472656 -130.81199645996094,30.829999923706055 C-165.79200744628906,0.7300000190734863 -189.802001953125,-22.420000076293945 -171.94200134277344,-38.86000061035156 C-171.3719940185547,-39.38999938964844 -170.79200744628906,-39.86000061035156 -170.20199584960938,-40.290000915527344 C-170.20199584960938,-40.290000915527344 -163.8520050048828,-43.04999923706055 -163.8520050048828,-43.04999923706055 C-163.8520050048828,-43.04999923706055 -163.3419952392578,-43.27000045776367 -163.3419952392578,-43.27000045776367 C-163.3419952392578,-43.27000045776367 -163.40199279785156,-43.220001220703125 -163.49200439453125,-43.11000061035156 C-164.27200317382812,-42.22999954223633 -171.43099975585938,-34.263999938964844 -167.93099975585938,-24.413999557495117 C-164.00100708007812,-13.36400032043457 -136.97799682617188,12.781999588012695 -124.10399627685547,24.104000091552734 C-101.00299835205078,44.41999816894531 -50.76900100708008,89.50499725341797 -45.86899948120117,94.13500213623047 C-35.44900131225586,103.9749984741211 -5.019000053405762,127.36900329589844 29.650999069213867,132.37899780273438 C53.487998962402344,135.8179931640625 74.8239974975586,129.64300537109375 90.95899963378906,120.29399871826172 C98.28500366210938,116.04900360107422 101.80000305175781,109.27100372314453 106.72799682617188,104.32099914550781 C111.99099731445312,99.03399658203125 120.17900085449219,94.51100158691406 125.27100372314453,87.40399932861328 C130.4810028076172,80.13099670410156 135.3159942626953,72.11900329589844 139.18800354003906,63.80799865722656 C156.3509979248047,26.972000122070312 139.88699340820312,-30.785999298095703 145.89500427246094,-63.172000885009766 C153.66099548339844,-105.03199768066406 163.91299438476562,-112.41600036621094 170.25799560546875,-125.77799987792969 C175.63600158691406,-137.10499572753906 156.55799865722656,-149.4499969482422 156.0780029296875,-149.74000549316406 C160.25799560546875,-149.6699981689453 164.20799255371094,-148.6300048828125 167.68800354003906,-146.35000610351562 C185.84800720214844,-134.42999267578125 176.197998046875,-121.37000274658203 167.68800354003906,-106.04000091552734 C159.16799926757812,-90.70999908447266 155.197998046875,-72.54000091552734 154.6280059814453,-50.400001525878906z"></path></g><g opacity="0.3" transform="matrix(1,0,0,1,0,0)"><path fill="rgb(240,146,1)" fill-opacity="1" d=" M154.6280059814453,-50.400001525878906 C154.05799865722656,-28.260000228881836 153.95799255371094,-21.40999984741211 159.16799926757812,12.8100004196167 C164.3780059814453,47.02000045776367 152.75799560546875,78.9000015258789 134.3679962158203,101.31999969482422 C116.38800048828125,123.2300033569336 82.28800201416016,149.83999633789062 42.96799850463867,149.74000549316406 C-3.8320000171661377,149.61000061035156 -60.71200180053711,95.29000091552734 -77.41200256347656,79.9000015258789 C-77.41200256347656,79.9000015258789 -77.41200256347656,79.9000015258789 -77.4219970703125,79.88999938964844 C-89.60199737548828,68.36000061035156 -111.21199798583984,47.709999084472656 -130.81199645996094,30.829999923706055 C-165.79200744628906,0.7300000190734863 -189.802001953125,-22.420000076293945 -171.94200134277344,-38.86000061035156 C-171.3719940185547,-39.38999938964844 -170.79200744628906,-39.86000061035156 -170.20199584960938,-40.290000915527344 C-170.20199584960938,-40.290000915527344 -163.8520050048828,-43.04999923706055 -163.8520050048828,-43.04999923706055 C-163.8520050048828,-43.04999923706055 -163.3419952392578,-43.27000045776367 -163.3419952392578,-43.27000045776367 C-163.3419952392578,-43.27000045776367 -163.40199279785156,-43.220001220703125 -163.49200439453125,-43.11000061035156 C-164.27200317382812,-42.22999954223633 -170.12399291992188,-34.92100143432617 -166.62399291992188,-25.070999145507812 C-162.69400024414062,-14.020999908447266 -134.90499877929688,10.394000053405762 -122.03099822998047,21.715999603271484 C-98.93000030517578,42.03200149536133 -48.65399932861328,86.35800170898438 -43.75400161743164,90.98799896240234 C-33.33399963378906,100.8280029296875 -3.0339999198913574,121.99099731445312 28.384000778198242,126.80899810791016 C49.23899841308594,130.0070037841797 70.9469985961914,127.3010025024414 85.73500061035156,115.66200256347656 C93.15699768066406,109.82099914550781 94.56400299072266,103.26000213623047 99.03099822998047,98.77200317382812 C104.0459976196289,93.73400115966797 111.31900024414062,91.96299743652344 119.5979995727539,83.8499984741211 C126.22699737548828,77.35399627685547 130.71800231933594,69.90599822998047 134.7689971923828,61.21200180053711 C151.9320068359375,24.375999450683594 135.2830047607422,-31.334999084472656 141.29100036621094,-63.72100067138672 C149.0570068359375,-105.58100128173828 162.09800720214844,-112.71900177001953 168.4429931640625,-126.08100128173828 C173.8209991455078,-137.4080047607422 156.55799865722656,-149.4499969482422 156.0780029296875,-149.74000549316406 C160.25799560546875,-149.6699981689453 164.20799255371094,-148.6300048828125 167.68800354003906,-146.35000610351562 C185.84800720214844,-134.42999267578125 176.197998046875,-121.37000274658203 167.68800354003906,-106.04000091552734 C159.16799926757812,-90.70999908447266 155.197998046875,-72.54000091552734 154.6280059814453,-50.400001525878906z"></path></g><g opacity="0.15" transform="matrix(1,0,0,1,0,0)"><path fill="rgb(240,146,1)" fill-opacity="1" d=" M154.6280059814453,-50.400001525878906 C154.05799865722656,-28.260000228881836 153.95799255371094,-21.40999984741211 159.16799926757812,12.8100004196167 C164.3780059814453,47.02000045776367 152.75799560546875,78.9000015258789 134.3679962158203,101.31999969482422 C116.38800048828125,123.2300033569336 82.28800201416016,149.83999633789062 42.96799850463867,149.74000549316406 C-3.8320000171661377,149.61000061035156 -60.71200180053711,95.29000091552734 -77.41200256347656,79.9000015258789 C-77.41200256347656,79.9000015258789 -77.41200256347656,79.9000015258789 -77.4219970703125,79.88999938964844 C-89.60199737548828,68.36000061035156 -111.21199798583984,47.709999084472656 -130.81199645996094,30.829999923706055 C-165.79200744628906,0.7300000190734863 -189.802001953125,-22.420000076293945 -171.94200134277344,-38.86000061035156 C-171.3719940185547,-39.38999938964844 -170.79200744628906,-39.86000061035156 -170.20199584960938,-40.290000915527344 C-170.20199584960938,-40.290000915527344 -163.8520050048828,-43.04999923706055 -163.8520050048828,-43.04999923706055 C-163.8520050048828,-43.04999923706055 -163.3419952392578,-43.27000045776367 -163.3419952392578,-43.27000045776367 C-163.3419952392578,-43.27000045776367 -163.40199279785156,-43.220001220703125 -163.49200439453125,-43.11000061035156 C-164.27200317382812,-42.22999954223633 -169.0050048828125,-36.26599884033203 -165.5050048828125,-26.416000366210938 C-161.5749969482422,-15.366000175476074 -133.8679962158203,9.199999809265137 -120.99400329589844,20.52199935913086 C-97.89299774169922,40.8380012512207 -46.56999969482422,84.46399688720703 -41.66999816894531,89.09400177001953 C-31.25,98.93399810791016 -7.936999797821045,115.88700103759766 26.65999984741211,121.38099670410156 C48.51100158691406,124.85099792480469 69.74400329589844,121.11699676513672 81.06600189208984,110.15299987792969 C88.58000183105469,102.87699890136719 83.9219970703125,94.77100372314453 87.83899688720703,90.83599853515625 C92.47100067138672,86.18199920654297 101.0719985961914,87.95700073242188 111.49299621582031,81.28700256347656 C119.93099975585938,75.88700103759766 125.27799987792969,67.88400268554688 129.60400390625,58.599998474121094 C146.76699829101562,21.763999938964844 131.19400024414062,-31.36400032043457 137.32899475097656,-63.72600173950195 C144.69000244140625,-102.5530014038086 161.2270050048828,-113.19100189208984 166.76300048828125,-126.7979965209961 C171.48800659179688,-138.41299438476562 156.55799865722656,-149.4499969482422 156.0780029296875,-149.74000549316406 C160.25799560546875,-149.6699981689453 164.20799255371094,-148.6300048828125 167.68800354003906,-146.35000610351562 C185.84800720214844,-134.42999267578125 176.197998046875,-121.37000274658203 167.68800354003906,-106.04000091552734 C159.16799926757812,-90.70999908447266 155.197998046875,-72.54000091552734 154.6280059814453,-50.400001525878906z"></path></g><g opacity="0.1" transform="matrix(1,0,0,1,0,0)"><path fill="rgb(240,146,1)" fill-opacity="1" d=" M154.6280059814453,-50.400001525878906 C154.05799865722656,-28.260000228881836 153.95799255371094,-21.40999984741211 159.16799926757812,12.8100004196167 C164.3780059814453,47.02000045776367 152.75799560546875,78.9000015258789 134.3679962158203,101.31999969482422 C116.38800048828125,123.2300033569336 82.28800201416016,149.83999633789062 42.96799850463867,149.74000549316406 C-3.8320000171661377,149.61000061035156 -60.71200180053711,95.29000091552734 -77.41200256347656,79.9000015258789 C-77.41200256347656,79.9000015258789 -77.41200256347656,79.9000015258789 -77.4219970703125,79.88999938964844 C-89.60199737548828,68.36000061035156 -111.21199798583984,47.709999084472656 -130.81199645996094,30.829999923706055 C-165.79200744628906,0.7300000190734863 -189.802001953125,-22.420000076293945 -171.94200134277344,-38.86000061035156 C-171.3719940185547,-39.38999938964844 -170.79200744628906,-39.86000061035156 -170.20199584960938,-40.290000915527344 C-170.20199584960938,-40.290000915527344 -163.8520050048828,-43.04999923706055 -163.8520050048828,-43.04999923706055 C-163.8520050048828,-43.04999923706055 -163.3419952392578,-43.27000045776367 -163.3419952392578,-43.27000045776367 C-163.3419952392578,-43.27000045776367 -163.40199279785156,-43.220001220703125 -163.49200439453125,-43.11000061035156 C-164.27200317382812,-42.22999954223633 -167.64199829101562,-37.630001068115234 -164.14199829101562,-27.780000686645508 C-160.21200561523438,-16.729999542236328 -132.70599365234375,7.998000144958496 -119.83200073242188,19.31999969482422 C-96.73100280761719,39.63600158691406 -44.30099868774414,82.75499725341797 -39.4010009765625,87.38500213623047 C-28.981000900268555,97.2249984741211 -5.091000080108643,111.69599914550781 25.746999740600586,116.43199920654297 C54.79800033569336,120.89299774169922 71.56500244140625,109.60900115966797 75.0270004272461,100.73500061035156 C77.01699829101562,95.63500213623047 76.12200164794922,91.77799987792969 73.76000213623047,85.63899993896484 C71.48699951171875,79.73100280761719 70.88600158691406,74.5739974975586 78.13700103759766,78.75700378417969 C85.63999938964844,83.08499908447266 110.50700378417969,80.78099822998047 125.2249984741211,54.48500061035156 C145.072998046875,19.02400016784668 128.02099609375,-28.986000061035156 134.0290069580078,-61.37200164794922 C141.7949981689453,-103.23200225830078 162.16099548339844,-113.16699981689453 165.70899963378906,-128.69500732421875 C168.5019989013672,-140.91900634765625 156.55799865722656,-149.4499969482422 156.0780029296875,-149.74000549316406 C160.25799560546875,-149.6699981689453 164.20799255371094,-148.6300048828125 167.68800354003906,-146.35000610351562 C185.84800720214844,-134.42999267578125 176.197998046875,-121.37000274658203 167.68800354003906,-106.04000091552734 C159.16799926757812,-90.70999908447266 155.197998046875,-72.54000091552734 154.6280059814453,-50.400001525878906z"></path></g><g opacity="0.1" transform="matrix(1,0,0,1,0,0)"><path fill="rgb(240,146,1)" fill-opacity="1" d=" M154.6280059814453,-50.400001525878906 C154.05799865722656,-28.260000228881836 153.95799255371094,-21.40999984741211 159.16799926757812,12.8100004196167 C164.3780059814453,47.02000045776367 152.75799560546875,78.9000015258789 134.3679962158203,101.31999969482422 C116.38800048828125,123.2300033569336 82.28800201416016,149.83999633789062 42.96799850463867,149.74000549316406 C-3.8320000171661377,149.61000061035156 -60.71200180053711,95.29000091552734 -77.41200256347656,79.9000015258789 C-77.41200256347656,79.9000015258789 -77.41200256347656,79.9000015258789 -77.4219970703125,79.88999938964844 C-89.60199737548828,68.36000061035156 -111.21199798583984,47.709999084472656 -130.81199645996094,30.829999923706055 C-165.79200744628906,0.7300000190734863 -189.802001953125,-22.420000076293945 -171.94200134277344,-38.86000061035156 C-171.3719940185547,-39.38999938964844 -170.79200744628906,-39.86000061035156 -170.20199584960938,-40.290000915527344 C-170.20199584960938,-40.290000915527344 -163.8520050048828,-43.04999923706055 -163.8520050048828,-43.04999923706055 C-163.8520050048828,-43.04999923706055 -163.3419952392578,-43.27000045776367 -163.3419952392578,-43.27000045776367 C-163.3419952392578,-43.27000045776367 -163.40199279785156,-43.220001220703125 -163.49200439453125,-43.11000061035156 C-164.27200317382812,-42.22999954223633 -167.64199829101562,-37.630001068115234 -164.14199829101562,-27.780000686645508 C-160.21200561523438,-16.729999542236328 -131.6219940185547,7.191999912261963 -118.4219970703125,18.132999420166016 C-76.85199737548828,52.5890007019043 -60.814998626708984,65.1729965209961 -36.29100036621094,85.16999816894531 C-25.506000518798828,93.96399688720703 7.671999931335449,110.31400299072266 24.500999450683594,111.8489990234375 C43.691001892089844,113.5999984741211 62.08599853515625,106.60700225830078 66.8550033569336,99.80999755859375 C71.80000305175781,92.76300048828125 67.7969970703125,86.9219970703125 64.7979965209961,77.25399780273438 C61.52199935913086,66.69200134277344 64.98400115966797,65.05699920654297 71.41400146484375,70.41699981689453 C77.84400177001953,75.7770004272461 106.9219970703125,79.1510009765625 121.40799713134766,50.45800018310547 C139.72300720214844,14.180999755859375 123.45600128173828,-25.43899917602539 131.43600463867188,-61.80500030517578 C140.56199645996094,-103.38999938964844 160.69900512695312,-113.08300018310547 164.2469940185547,-128.61099243164062 C167.0399932861328,-140.8350067138672 156.55799865722656,-149.4499969482422 156.0780029296875,-149.74000549316406 C160.25799560546875,-149.6699981689453 164.20799255371094,-148.6300048828125 167.68800354003906,-146.35000610351562 C185.84800720214844,-134.42999267578125 176.197998046875,-121.37000274658203 167.68800354003906,-106.04000091552734 C159.16799926757812,-90.70999908447266 155.197998046875,-72.54000091552734 154.6280059814453,-50.400001525878906z"></path></g></g><g style="display: block;" transform="matrix(1.065750002861023,0.01575002446770668,0.01575002446770668,1.065750002861023,143.76629638671875,312.6490783691406)" opacity="1"><g opacity="1" transform="matrix(1,0,0,1,0,0)"><path stroke-linecap="round" stroke-linejoin="round" fill-opacity="0" stroke="rgb(225,124,0)" stroke-opacity="1" stroke-width="8" d=" M52.736000061035156,-0.9620000123977661 C48.439998626708984,5.290999889373779 28.416000366210938,-17.51099967956543 7.076000213623047,-35.28200149536133 C-20.86400032043457,-58.54999923706055 -35.106998443603516,-68.16899871826172 -47.14500045776367,-57.084999084472656 C-65.00399780273438,-40.641998291015625 -37.05099868774414,-16.81999969482422 -6.014999866485596,11.609000205993652 C13.065999984741211,29.08799934387207 35.20500183105469,50.143001556396484 47.38399887084961,61.680999755859375"></path></g></g><g style="display: block;" transform="matrix(1.065750002861023,0.01575002446770668,0.01575002446770668,1.065750002861023,330.0834655761719,295.9781494140625)" opacity="1"><g opacity="1" transform="matrix(1,0,0,1,0,0)"><path stroke-linecap="round" stroke-linejoin="round" fill-opacity="0" stroke="rgb(225,124,0)" stroke-opacity="1" stroke-width="8" d=" M-5.077000141143799,-90.29299926757812 C11.39799976348877,-69.71399688720703 25.365999221801758,-57.87799835205078 34.31700134277344,-58.15700149536133 C40.15599822998047,-58.3390007019043 45.59199905395508,-60.55699920654297 49.62699890136719,-66.38500213623047 C59.84700012207031,-81.14700317382812 55.534000396728516,-102.625 61.77899932861328,-119.48600006103516 C68.02400207519531,-136.3470001220703 99.2249984741211,-158.26400756835938 117.39299774169922,-146.34100341796875 C135.56100463867188,-134.41799926757812 125.90899658203125,-121.36000061035156 117.39299774169922,-106.03099822998047 C108.87699890136719,-90.7020034790039 104.90299987792969,-72.53299713134766 104.33499908447266,-50.39099884033203 C103.76699829101562,-28.249000549316406 103.6719970703125,-21.399999618530273 108.87799835205078,12.814000129699707 C114.08399963378906,47.02799987792969 102.46800231933594,78.91200256347656 84.0770034790039,101.322998046875 C66.09700012207031,123.23300170898438 31.993000030517578,149.85000610351562 -7.323999881744385,149.7449951171875 C-54.12200164794922,149.6199951171875 -106.83499908447266,98.66799926757812 -127.70800018310547,79.91200256347656"></path></g></g><g style="display: block;" transform="matrix(1.065750002861023,0.01575002446770668,0.01575002446770668,1.065750002861023,257.8082580566406,237.85800170898438)" opacity="0.8"><g opacity="1" transform="matrix(1,0,0,1,0,0)"><path fill="rgb(255,215,93)" fill-opacity="1" d=" M136.36500549316406,-7.2729997634887695 C133.55999755859375,-14.253000259399414 117.6520004272461,-0.12999999523162842 99.09600067138672,19.57200050354004 C77.51599884033203,42.48400115966797 75.8270034790039,76.3239974975586 84.03299713134766,91.29199981689453 C95.1449966430664,111.55899810791016 116.3499984741211,107.92400360107422 120.34500122070312,87.572998046875 C124.51000213623047,66.35700225830078 127.61299896240234,46.82099914550781 130.5469970703125,29.586000442504883 C133.1750030517578,14.147000312805176 140.63800048828125,3.361999988555908 136.36500549316406,-7.2729997634887695z"></path></g><g opacity="1" transform="matrix(1,0,0,1,0,0)"><path fill="rgb(255,215,93)" fill-opacity="1" d=" M161.80299377441406,-88.5739974975586 C149.74400329589844,-86.65899658203125 141.50900268554688,-74.75 137.33399963378906,-61.91600036621094 C133.7550048828125,-50.91400146484375 130.6479949951172,-32.702999114990234 140.3730010986328,-31.441999435424805 C148.54800415039062,-30.381999969482422 151.9770050048828,-43.16999816894531 163.0449981689453,-55.6609992980957 C178.24000549316406,-72.80799865722656 179.91600036621094,-91.45099639892578 161.80299377441406,-88.5739974975586z"></path></g><g opacity="1" transform="matrix(1,0,0,1,0,0)"><path fill="rgb(255,215,93)" fill-opacity="1" d=" M48.534000396728516,-17.381000518798828 C44.53300094604492,-25.384000778198242 16.996999740600586,-21.13800048828125 -7.130000114440918,10.279000282287598 C-31.256999969482422,41.69599914550781 -48.137001037597656,90.79900360107422 -35.861000061035156,99.23799896240234 C-23.584999084472656,107.677001953125 -17.298999786376953,77.94000244140625 -4.020999908447266,55.12200164794922 C9.40999984741211,32.04100036621094 21.827999114990234,19.83099937438965 31.658000946044922,10.093000411987305 C42.89400100708008,-1.0369999408721924 52.75400161743164,-8.942000389099121 48.534000396728516,-17.381000518798828z"></path></g><g opacity="1" transform="matrix(1,0,0,1,0,0)"><path fill="rgb(255,215,93)" fill-opacity="1" d=" M33.04800033569336,129.07400512695312 C15.201000213623047,125.2699966430664 7.771999835968018,120.47100067138672 -1.7920000553131104,116.48899841308594 C-9.96500015258789,113.08599853515625 -19.915000915527344,114.87999725341797 -13.487000465393066,128.36199951171875 C-7.059999942779541,141.843994140625 15.657999992370605,155.09100341796875 29.395999908447266,157.33399963378906 C52.167999267578125,161.052001953125 77.26000213623047,155.36599731445312 76.19000244140625,140.89599609375 C75.41799926757812,130.4600067138672 59.36600112915039,134.6840057373047 33.04800033569336,129.07400512695312z"></path></g></g></g></svg>